<?xml version="1.0" standalone="no"?>
<!DOCTYPE svg PUBLIC "-//W3C//DTD SVG 20010904//EN"
 "http://www.w3.org/TR/2001/REC-SVG-20010904/DTD/svg10.dtd">
<svg version="1.0" xmlns="http://www.w3.org/2000/svg"
 width="1024.000000pt" height="1024.000000pt" viewBox="0 0 1024.000000 1024.000000"
 preserveAspectRatio="xMidYMid meet">
<metadata>
Created by potrace 1.11, written by Peter Selinger 2001-2013
</metadata>
<g transform="translate(0.000000,1024.000000) scale(0.100000,-0.100000)"
fill="#000000" stroke="none">
<path d="M0 5120 l0 -5120 5120 0 5120 0 0 5120 0 5120 -5120 0 -5120 0 0
-5120z m2268 1938 c1 -104 0 -188 -4 -188 -9 0 -426 -69 -451 -75 l-23 -5 0
-735 0 -735 1035 0 1035 0 0 734 0 735 -52 10 c-55 11 -412 71 -422 71 -3 0
-6 86 -6 190 l0 190 765 0 765 0 0 -189 0 -189 -72 -12 c-202 -34 -389 -68
-393 -72 -6 -6 -7 -3350 -1 -3355 2 -2 98 -20 212 -39 115 -19 219 -36 232
-39 22 -5 22 -7 22 -190 l0 -185 -765 0 -765 0 0 185 c0 183 0 185 23 190 25
5 442 75 451 75 3 0 6 322 6 715 l0 715 -1035 0 -1035 0 0 -715 c0 -393 1
-715 3 -715 2 0 109 -18 238 -40 129 -22 235 -40 237 -40 1 0 2 -83 2 -185 l0
-185 -770 0 -770 0 0 185 c0 102 1 185 3 185 1 0 106 18 232 40 127 22 233 40
238 40 4 0 7 756 7 1680 l0 1680 -22 5 c-26 5 -443 75 -452 75 -8 0 -7 365 1
373 3 4 349 6 767 5 l761 -3 3 -187z m5152 -1453 c564 -905 1028 -1645 1033
-1645 4 0 7 637 7 1415 l0 1415 -22 5 c-22 5 -438 75 -445 75 -1 0 -3 86 -3
190 l0 190 765 0 765 0 0 -190 c0 -104 -3 -190 -6 -190 -9 0 -426 -70 -451
-75 l-23 -5 0 -1905 0 -1905 -288 0 -288 0 -1025 1645 c-563 905 -1027 1645
-1031 1645 -5 0 -8 -639 -8 -1419 l0 -1419 28 -6 c15 -3 110 -19 212 -36 102
-17 197 -33 213 -36 l27 -6 0 -184 0 -184 -770 0 -770 0 0 185 c0 183 0 185
23 190 25 5 442 75 451 75 3 0 6 756 6 1680 l0 1680 -22 5 c-26 5 -443 75
-452 75 -3 0 -6 86 -6 190 l0 190 528 0 527 0 1025 -1645z"/>
</g>
</svg>
